<svg width="27" height="18" viewBox="0 0 27 18" fill="none" xmlns="http://www.w3.org/2000/svg">
<path d="M6.67 18L3.836 10.746H2.432V18H0.82V0.00799918H4.096C5.188 0.00799918 6.072 0.354666 6.748 1.048C7.424 1.724 7.762 2.608 7.762 3.7V7.054C7.762 7.90333 7.54533 8.64 7.112 9.264C6.696 9.87067 6.124 10.2953 5.396 10.538L8.49 18H6.67ZM2.432 9.29H4.018C4.65933 9.29 5.17067 9.09067 5.552 8.692C5.95067 8.29333 6.15 7.72133 6.15 6.976V3.778C6.15 3.03267 5.95067 2.46067 5.552 2.062C5.17067 1.66333 4.65933 1.464 4.018 1.464H2.432V9.29ZM9.21556 0.00799918H16.8076V1.464H13.8176V18H12.2056V1.464H9.21556V0.00799918ZM22.1717 9.134H20.6117V18H18.9997V0.00799918H20.6117V7.678H22.2237L24.4077 0.00799918H26.1497L23.4977 8.38L26.6697 18H24.8757L22.1717 9.134Z" fill="#02E602"/>
</svg>
