<svg width="38" height="38" viewBox="0 0 38 38" fill="none" xmlns="http://www.w3.org/2000/svg">
<path d="M18.5 2C9.30714 2 2 9.30714 2 18.5C2 27.6929 9.30714 35 18.5 35C27.6929 35 35 27.6929 35 18.5C35 9.30714 27.6929 2 18.5 2ZM18.5 32.6429C10.7214 32.6429 4.35714 26.2786 4.35714 18.5C4.35714 10.7214 10.7214 4.35714 18.5 4.35714C26.2786 4.35714 32.6429 10.7214 32.6429 18.5C32.6429 26.2786 26.2786 32.6429 18.5 32.6429Z" fill="#02E602"/>
<path d="M26.0571 28L19.5 21.4429L12.9429 28L11 26.0571L17.5571 19.5L11 12.9429L12.9429 11L19.5 17.5571L26.0571 11L28 12.9429L21.4429 19.5L28 26.0571L26.0571 28Z" fill="#02E602"/>
</svg>
