<svg width="42" height="42" viewBox="0 0 42 42" fill="none" xmlns="http://www.w3.org/2000/svg">
<path d="M20.5 27C24.0899 27 27 24.3137 27 21C27 17.6863 24.0899 15 20.5 15C16.9101 15 14 17.6863 14 21C14 24.3137 16.9101 27 20.5 27Z" stroke="#02E602" stroke-width="2" stroke-miterlimit="10" stroke-linecap="round" stroke-linejoin="round"/>
<path d="M40.5531 12.3323L38.8902 9.66769C37.9722 8.19538 35.9383 7.69231 34.3468 8.54154L33.4721 9.00923C30.1461 10.7846 25.9886 8.56462 25.9886 5.01231V4.07692C25.9886 2.37692 24.5002 1 22.6626 1H19.3366C17.499 1 16.0106 2.37692 16.0106 4.07692V5.01231C16.0106 8.56462 11.8531 10.7862 8.52716 9.00923L7.65242 8.54154C6.06093 7.69231 4.02709 8.19538 3.10911 9.66769L1.44612 12.3323C0.528141 13.8046 1.07194 15.6862 2.66343 16.5354L3.53817 17.0031C6.86416 18.78 6.86416 23.22 3.53817 24.9969L2.66343 25.4646C1.07194 26.3138 0.528141 28.1954 1.44612 29.6677L3.10911 32.3323C4.02709 33.8046 6.06093 34.3077 7.65242 33.4585L8.52716 32.9908C11.8531 31.2138 16.0106 33.4354 16.0106 36.9877V37.9231C16.0106 39.6231 17.499 41 19.3366 41H22.6626C24.5002 41 25.9886 39.6231 25.9886 37.9231V36.9877C25.9886 33.4354 30.1461 31.2138 33.4721 32.9908L34.3468 33.4585C35.9383 34.3077 37.9722 33.8046 38.8902 32.3323L40.5531 29.6677C41.4711 28.1954 40.9273 26.3138 39.3358 25.4646L38.4611 24.9969C35.1351 23.22 35.1351 18.78 38.4611 17.0031L39.3358 16.5354C40.9273 15.6862 41.4728 13.8046 40.5531 12.3323Z" stroke="#02E602" stroke-width="2" stroke-miterlimit="10" stroke-linecap="round" stroke-linejoin="round"/>
</svg>
