<svg width="314" height="229" viewBox="0 0 314 229" fill="none" xmlns="http://www.w3.org/2000/svg">
<path d="M145 26L146.072 54.8879L153.655 55L154 26.2242L145 26Z" fill="#A9A088"/>
<path d="M261.34 64.3216L263 5.37884C263 5.37884 259.64 0.102636 255.372 5.26578L253 64.9246L258.534 65" fill="#A9A088"/>
<path opacity="0.7" d="M207 26.4383C206.925 30.2268 231.269 35.4843 260.67 35.9482C290.071 36.4121 313.962 33.7061 314 29.9176C314.075 26.1291 293.091 21.5288 263.689 21.0649C234.288 20.601 207.038 22.6498 207 26.4383Z" fill="white"/>
<path d="M52 61.1342L52.2667 2.259C52.2667 2.259 55.6952 -2.89822 59.619 2.37193L60 62L54.6667 61.9247" fill="#A9A088"/>
<path opacity="0.7" d="M107 25.2158C106.925 28.9948 82.4846 33.4293 53.104 32.9666C23.7233 32.5039 -0.037671 29.0333 4.48377e-05 25.2543C0.0377607 21.4753 21.1586 17.5421 50.5393 18.0434C79.92 18.5061 107.038 21.4368 107 25.2158Z" fill="white"/>
<path d="M33.5663 93L33 56L70 56.5657L69.4714 91.3027L33.5663 93Z" fill="#BDB69E"/>
<path d="M274.318 98L276 60.5729L238.573 60L238 95.1357L274.318 98Z" fill="#BDB69E"/>
<path d="M102 93L121.835 48L187.181 49.0297L200 92.2754L102 93Z" fill="#BDB69E"/>
<path d="M152.358 214.7L153 174.112L145.642 174L145 215L152.358 214.7Z" fill="#BDB69E"/>
<path d="M156.541 223.497C155.033 227.919 150.357 230.13 146.059 228.423C141.761 226.755 140.027 222.528 141.535 218.106C143.043 213.684 147.115 211.938 151.451 213.645C155.711 215.313 158.049 219.075 156.541 223.497Z" fill="#CCC5B0"/>
<path d="M222 207.268L190.627 150L184 153.393L215.565 211L222 207.268Z" fill="#BDB69E"/>
<path d="M228.897 211.946C229.616 216.323 226.512 220.369 221.893 220.92C217.313 221.509 213.83 218.787 213.111 214.411C212.392 210.034 215.231 206.687 219.811 206.099C224.392 205.51 228.177 207.57 228.897 211.946Z" fill="#CCC5B0"/>
<path d="M74 204.055L106.6 148L113 151.569L80.1737 208L74 204.055Z" fill="#BDB69E"/>
<path d="M66.1508 209.698C65.2793 214.067 68.2728 218.179 72.8579 218.877C77.4429 219.611 80.967 217.004 81.8385 212.635C82.71 208.266 79.9818 204.851 75.3967 204.153C70.8496 203.419 66.9845 205.328 66.1508 209.698Z" fill="#CCC5B0"/>
<path d="M207.207 112C209.846 128.112 205.926 145.288 194.992 159.044C174.558 184.693 133.238 186.555 107.789 165.96C90.522 151.976 84.9422 131.874 89.5418 112.418L207.207 112Z" fill="#CCC5B0"/>
<path d="M168.999 141.208C168.811 152.867 159.295 162.186 147.682 161.997C136.105 161.809 126.852 152.187 127.002 140.529C127.189 128.87 134.794 121.815 146.37 122.004C157.984 122.192 169.148 129.512 168.999 141.208Z" fill="#A9A088"/>
<path d="M142.768 149.309C138.431 145.946 137.734 139.82 141.219 135.635C144.705 131.451 151.056 130.779 155.393 134.141C159.73 137.503 160.156 142.248 156.671 146.47C153.185 150.654 147.105 152.671 142.768 149.309Z" fill="#F2F2F2"/>
<path d="M146.766 129.619C145.901 128.923 145.737 127.613 146.436 126.754C147.136 125.894 148.371 125.73 149.276 126.467C150.141 127.163 150.223 128.187 149.565 129.046C148.824 129.947 147.63 130.356 146.766 129.619Z" fill="#CCC5B0"/>
<path d="M148.841 157.782C148.356 158.823 147.144 159.281 146.134 158.823C145.124 158.365 144.72 157.157 145.205 156.117C145.689 155.076 146.619 154.743 147.629 155.201C148.639 155.659 149.326 156.741 148.841 157.782Z" fill="#CCC5B0"/>
<path d="M165.841 141.782C165.356 142.823 164.144 143.281 163.134 142.823C162.124 142.365 161.72 141.157 162.205 140.117C162.689 139.076 163.619 138.743 164.629 139.201C165.639 139.659 166.326 140.741 165.841 141.782Z" fill="#CCC5B0"/>
<path d="M134.841 141.782C134.356 142.823 133.144 143.281 132.134 142.823C131.124 142.365 130.72 141.157 131.205 140.117C131.689 139.076 132.619 138.743 133.629 139.201C134.639 139.659 135.326 140.741 134.841 141.782Z" fill="#CCC5B0"/>
<path d="M158.921 131.399C158.675 131.901 158.058 132.153 157.565 131.901C157.072 131.682 156.856 131.053 157.102 130.551C157.349 130.048 157.811 129.86 158.335 130.111C158.798 130.362 159.168 130.896 158.921 131.399Z" fill="#CCC5B0"/>
<path d="M137.918 131.399C137.672 131.901 137.056 132.153 136.564 131.901C136.072 131.682 135.856 131.053 136.102 130.551C136.348 130.048 136.81 129.86 137.333 130.111C137.825 130.331 138.164 130.865 137.918 131.399Z" fill="#CCC5B0"/>
<path d="M137.918 151.399C137.672 151.901 137.087 152.153 136.564 151.901C136.072 151.682 135.856 151.053 136.102 150.551C136.348 150.048 136.81 149.86 137.333 150.111C137.825 150.331 138.164 150.896 137.918 151.399Z" fill="#CCC5B0"/>
<path d="M159.933 151.399C159.685 151.901 159.065 152.153 158.568 151.901C158.072 151.682 157.855 151.053 158.103 150.551C158.351 150.048 158.816 149.86 159.344 150.111C159.809 150.331 160.15 150.865 159.933 151.399Z" fill="#CCC5B0"/>
<path opacity="0.3" d="M131.85 146.699C127.661 143.253 128.147 135.519 132.934 129.431C137.722 123.343 144.978 121.199 149.167 124.645C153.356 128.091 152.832 134.141 148.045 140.229C143.257 146.316 136.039 150.145 131.85 146.699Z" fill="#F2F2F2"/>
<path d="M131 5.22511L131.376 30.4747L165.586 31L166 5L131 5.22511Z" fill="#BDB69E"/>
<path d="M144.274 22.9439C141.658 20.8008 141.241 16.9357 143.326 14.2952C145.411 11.6547 149.201 11.2337 151.817 13.3385C154.432 15.4433 154.698 18.4665 152.613 21.107C150.49 23.7858 146.889 25.0486 144.274 22.9439Z" fill="#DAD6C6"/>
<path d="M145.001 18.5999C145.077 16.5604 146.674 14.9607 148.613 15.0007C150.552 15.0407 152.073 16.7603 151.997 18.7998C151.921 20.8393 150.628 22.039 148.727 21.999C146.788 21.9191 144.963 20.6394 145.001 18.5999Z" fill="#DF6D5B"/>
<path opacity="0.4" d="M88.1196 113C88.1196 113 87.9682 115.497 88.0061 119.584C150.755 122.157 188.639 145.162 197.533 155C210.363 136.762 207.789 114.892 207.789 114.892L88.1196 113Z" fill="#A9A088"/>
<path d="M301.717 119.469C292.247 150.475 254.82 114.282 147.312 113.443C88.028 112.986 54.9197 125.533 33.7061 123.588C33.6303 123.588 33.5546 123.588 33.4409 123.55C12 121.605 11.8485 115.808 11.2045 109.782C10.3711 101.926 6.12842 77.6321 146.327 80.1873C295.542 82.9333 304.028 111.956 301.717 119.469Z" fill="#DAD6C6"/>
</svg>
