<svg width="40" height="40" viewBox="0 0 40 40" fill="none" xmlns="http://www.w3.org/2000/svg">
<circle cx="20" cy="20" r="19" fill="#1E1F20" fill-opacity="0.95" stroke="white" stroke-width="2"/>
<path d="M20 9C17.2386 9 15 11.0147 15 13.5C15 15.9854 17.2386 18 20 18C22.7615 18 25 15.9854 25 13.5C25 11.0147 22.7615 9 20 9Z" fill="#02E502"/>
<path d="M29.8234 26.2547C30.0589 26.7238 30.0589 27.2762 29.8234 27.7455C29.8376 27.7162 29.8222 27.7478 29.8222 27.7478L29.8209 27.7503L29.8184 27.7553L29.8125 27.7667L29.7988 27.7927C29.7886 27.8118 29.7764 27.834 29.7622 27.8592C29.7334 27.9097 29.6961 27.972 29.6493 28.0445C29.5558 28.1897 29.4239 28.3757 29.2464 28.5878C28.8905 29.0133 28.3544 29.5408 27.5827 30.0535C26.024 31.089 23.6028 32 19.9653 32C13.8023 32 11.211 29.384 10.3765 28.1858C9.87166 27.4608 9.92757 26.6138 10.2329 26.0052C11.4645 23.5505 13.9819 22 16.7357 22H22.9156C25.8409 22 28.5151 23.6472 29.8234 26.2547Z" fill="#02E502"/>
</svg>
