<svg width="40" height="40" viewBox="0 0 40 40" fill="none" xmlns="http://www.w3.org/2000/svg">
<g clip-path="url(#clip0_7200_2)">
<path d="M20 39C30.4934 39 39 30.4934 39 20C39 9.50659 30.4934 1 20 1C9.50659 1 1 9.50659 1 20C1 30.4934 9.50659 39 20 39Z" fill="#1D1E1F" stroke="white" stroke-width="2"/>
<path fill-rule="evenodd" clip-rule="evenodd" d="M10.5613 12.9659V20.6263C10.5613 26.3459 15.7338 29.0956 19.8884 31.3055L19.9992 31.3636L20.1116 31.3055C24.2662 29.0956 29.4387 26.3459 29.4387 20.6263V12.9659L19.9992 8.61039L10.5613 12.9659ZM19.9992 33C19.8712 33 19.7432 32.9679 19.6261 32.9067L19.1436 32.6498C14.8626 30.3726 9 27.2559 9 20.6263V12.4811C9 12.1844 9.17487 11.9152 9.44809 11.7883L19.6682 7.07341C19.8774 6.97553 20.1226 6.97553 20.3318 7.07341L30.5519 11.7883C30.8251 11.9153 31 12.1844 31 12.4811V20.6263C31 27.2559 25.1358 30.3726 20.8564 32.6498L20.3739 32.9067C20.2568 32.9679 20.1288 33 19.9992 33ZM26.4571 25.5843H22.1246L20.8584 24.3456V23.2108H19.244V21.6295H18.0871L17.2784 20.8373C17.2518 20.8388 17.2253 20.8388 17.1988 20.8388C14.7647 20.8388 12.785 18.8997 12.785 16.5154C12.785 14.1312 14.7647 12.1905 17.1988 12.1905C19.6328 12.1905 21.6125 14.1312 21.6125 16.5154C21.6125 16.5414 21.6125 16.5674 21.6109 16.5919L26.4572 21.3405L26.4571 25.5843ZM22.771 24.055H24.8959V21.9736L19.9825 17.1578L20.0372 16.6531C20.0512 14.9754 18.771 13.7199 17.1988 13.7199C15.6265 13.7199 14.3463 14.9754 14.3463 16.5154C14.3463 18.057 15.6265 19.3095 17.1988 19.3095L17.8514 19.2376L18.7335 20.1002H20.8053V21.6815H22.4197V23.7124L22.771 24.055ZM18.4386 16.5592C18.4386 17.1923 17.914 17.7062 17.2676 17.7062C16.6212 17.7062 16.0966 17.1923 16.0966 16.5592C16.0966 15.926 16.6212 15.4122 17.2676 15.4122C17.914 15.4122 18.4386 15.926 18.4386 16.5592Z" fill="#01B601"/>
</g>
<defs>
<clipPath id="clip0_7200_2">
<rect width="40" height="40" fill="white"/>
</clipPath>
</defs>
</svg>
