<svg width="40" height="40" viewBox="0 0 40 40" fill="none" xmlns="http://www.w3.org/2000/svg">
<circle cx="20" cy="20" r="19" fill="#1E1F20" fill-opacity="0.95" stroke="white" stroke-width="2"/>
<g clip-path="url(#clip0_7136_20)">
<path d="M11.0543 13.8318C10.8207 13.8325 10.5925 13.9016 10.3978 14.0307C10.2031 14.1598 10.0506 14.3432 9.9591 14.5581C7.07889 14.7227 4.99104 14.9996 5.00003 15.2159C5.0084 15.4308 7.08075 15.525 9.93771 15.4404C10.0369 15.7076 10.2279 15.9302 10.4765 16.0687H10.0127V16.9188H9.44543C9.40982 16.9187 9.37456 16.9257 9.34165 16.9393C9.30874 16.9529 9.27884 16.9729 9.25365 16.998C9.22845 17.0232 9.20847 17.0531 9.19483 17.086C9.1812 17.1188 9.17418 17.1541 9.17418 17.1897V17.7954C9.17418 17.9452 9.29539 18.0664 9.44512 18.0664H13.2631C14.225 18.2927 14.3326 18.6377 15.053 19.2692C14.9352 19.9242 14.7616 20.6394 14.6258 21.2575V26.5192C14.6258 26.6912 14.6942 26.8562 14.8158 26.9778C14.9375 27.0995 15.1025 27.1678 15.2745 27.1678C15.4466 27.1678 15.6115 27.0995 15.7332 26.9778C15.8548 26.8562 15.9232 26.6912 15.9232 26.5192V23.975C15.9083 21.836 16.2536 20.9711 17.4437 19.3154L17.7429 19.1765C17.7429 20.4618 18.6313 20.5389 19.8844 20.8257H18.9432C18.6568 20.8257 18.4243 21.0582 18.4243 21.3449V24.4449C18.4243 24.7314 18.6568 24.9639 18.9432 24.9639H22.0568C22.3433 24.9639 22.5758 24.7314 22.5758 24.4449V21.3449C22.5758 21.0582 22.3433 20.826 22.0568 20.826H21.1166C22.3693 20.5383 23.2572 20.4614 23.2572 19.1765L23.5563 19.3154C25.062 20.8734 25.0769 21.9339 25.0769 23.9747V26.5188C25.0769 26.6909 25.1452 26.8559 25.2669 26.9775C25.3885 27.0992 25.5535 27.1675 25.7255 27.1675C25.8976 27.1675 26.0626 27.0992 26.1842 26.9775C26.3059 26.8559 26.3742 26.6909 26.3742 26.5188V21.2575C26.2152 20.5783 26.045 19.8666 25.8844 19.1613C26.5661 18.4933 26.8457 18.3429 27.7308 18.0664H31.5549C31.6268 18.0664 31.6957 18.0378 31.7465 17.987C31.7973 17.9362 31.8259 17.8673 31.8259 17.7954V17.1897C31.8259 17.1178 31.7973 17.0489 31.7465 16.9981C31.6957 16.9473 31.6268 16.9188 31.5549 16.9188H30.9873V16.0687H30.5236C30.7723 15.9302 30.9634 15.7074 31.0623 15.4404C33.9193 15.525 35.9917 15.4308 36 15.2159C36.009 14.9996 33.9212 14.723 31.041 14.5581C30.9526 14.3509 30.8075 14.1728 30.6223 14.0445C30.4371 13.9162 30.2194 13.843 29.9943 13.8332C29.7692 13.8234 29.546 13.8775 29.3503 13.9892C29.1547 14.1009 28.9946 14.2657 28.8886 14.4645C26.0035 14.3768 23.8967 14.4701 23.8846 14.6865C23.8756 14.9013 25.9353 15.1763 28.791 15.3412C28.8329 15.4943 28.9049 15.6374 29.0028 15.7624C29.1007 15.8873 29.2225 15.9914 29.3611 16.0687H28.8973V16.9188C25.9728 16.9119 23.7091 15.4422 20.5 15.3818C17.3991 15.4475 14.8022 16.9188 12.1027 16.9188V16.0687H11.639C11.7776 15.9914 11.8994 15.8873 11.9973 15.7624C12.0952 15.6374 12.1672 15.4943 12.2091 15.3412C15.0648 15.1763 17.1244 14.901 17.1154 14.6865C17.1034 14.4701 14.9966 14.3765 12.1114 14.4645C12.0093 14.273 11.857 14.1129 11.6707 14.0015C11.4845 13.89 11.2714 13.8312 11.0543 13.8318ZM20.5 21.5858C21.2276 21.5858 21.8256 22.1838 21.8256 22.9114C21.8256 23.6389 21.2276 24.2372 20.5 24.2372C19.7725 24.2372 19.1738 23.6389 19.1738 22.9114C19.1738 22.1838 19.7721 21.5858 20.5 21.5858ZM20.5 22.3639C20.1931 22.3639 19.9523 22.6045 19.9523 22.9114C19.9523 23.2183 20.1931 23.4588 20.5 23.4588C20.8069 23.4588 21.0472 23.2183 21.0472 22.9114C21.0472 22.6045 20.8069 22.3639 20.5 22.3639Z" fill="#02E502"/>
</g>
<defs>
<clipPath id="clip0_7136_20">
<rect width="31" height="31" fill="white" transform="translate(5 5)"/>
</clipPath>
</defs>
</svg>
