<svg width="33" height="33" viewBox="0 0 33 33" fill="none" xmlns="http://www.w3.org/2000/svg">
<circle cx="16.5" cy="16.5" r="15.5" stroke="#01B601" stroke-width="2"/>
<path d="M16.5 8C14.567 8 13 9.56701 13 11.5C13 13.4331 14.567 15 16.5 15C18.433 15 20 13.4331 20 11.5C20 9.56701 18.433 8 16.5 8Z" fill="white"/>
<path d="M23.8764 19.9783C24.0412 20.3067 24.0412 20.6933 23.8764 21.0218C23.8863 21.0013 23.8756 21.0235 23.8756 21.0235L23.8746 21.0252L23.8729 21.0287L23.8688 21.0367L23.8592 21.0549C23.852 21.0683 23.8435 21.0838 23.8335 21.1014C23.8134 21.1368 23.7873 21.1804 23.7545 21.2311C23.6891 21.3328 23.5967 21.463 23.4725 21.6115C23.2234 21.9093 22.8481 22.2786 22.3079 22.6374C21.2168 23.3623 19.5219 24 16.9757 24C12.6616 24 10.8477 22.1688 10.2636 21.3301C9.91016 20.8226 9.9493 20.2297 10.1631 19.8036C11.0251 18.0853 12.7873 17 14.715 17H19.0409C21.0886 17 22.9606 18.153 23.8764 19.9783Z" fill="white"/>
</svg>
