<svg width="17" height="21" viewBox="0 0 17 21" fill="none" xmlns="http://www.w3.org/2000/svg">
<path d="M0.956769 6.35388C0.764442 6.35388 0.620197 6.36137 0.467939 6.35388C0.179449 6.33892 0.0191759 6.2042 0.0111623 5.93478C0.00314871 5.29865 -0.012878 4.66251 0.0191764 4.02637C0.067258 3.19565 0.764442 2.60442 1.66998 2.59693C2.55949 2.58945 3.449 2.59693 4.34652 2.59693C4.4507 2.59693 4.56289 2.59693 4.71515 2.59693C4.71515 2.31254 4.71515 2.05809 4.71515 1.79615C4.72316 0.688525 5.46842 0 6.66245 0C7.88052 0 9.1066 0 10.3247 0C11.4626 0 12.2079 0.688524 12.2319 1.74376C12.2399 2.01319 12.2319 2.28261 12.2319 2.59693C12.3601 2.59693 12.4643 2.59693 12.5765 2.59693C13.466 2.59693 14.3555 2.59693 15.253 2.59693C16.3188 2.59693 16.992 3.23307 17 4.23592C17 4.73735 17 5.24626 17 5.74768C17 6.24911 16.8958 6.3464 16.3509 6.35388C16.2788 6.35388 16.2147 6.35389 16.1425 6.36137C16.1265 6.36137 16.1105 6.37634 16.0544 6.39879C16.0544 6.49608 16.0544 6.60085 16.0544 6.71311C16.0544 10.6796 16.0544 14.6461 16.0544 18.6126C16.0544 20.1019 15.0928 21 13.49 21C10.1564 21 6.82272 21 3.48907 21C1.93443 21 0.96478 20.0944 0.96478 18.6351C0.96478 14.6686 0.96478 10.7021 0.96478 6.73557C0.956767 6.62331 0.956769 6.51105 0.956769 6.35388ZM1.7982 6.36885C1.7982 6.49608 1.7982 6.58589 1.7982 6.67569C1.7982 10.6721 1.7982 14.6611 1.7982 18.6575C1.7982 19.6379 2.40723 20.2067 3.45701 20.2067C6.82272 20.2067 10.1884 20.2067 13.5542 20.2067C14.6039 20.2067 15.213 19.6379 15.213 18.6575C15.213 14.6611 15.213 10.6721 15.213 6.67569C15.213 6.5784 15.213 6.48111 15.213 6.36885C10.7253 6.36885 6.2778 6.36885 1.7982 6.36885ZM16.1586 5.5531C16.1586 5.14897 16.1586 4.7598 16.1586 4.37063C16.1586 3.62972 15.8941 3.38275 15.0928 3.38275C10.6933 3.38275 6.30184 3.38275 1.90237 3.38275C1.76614 3.38275 1.6219 3.38275 1.48566 3.4052C1.17313 3.46508 0.924713 3.64469 0.900673 3.93656C0.860605 4.46792 0.892658 5.00677 0.892658 5.5531C5.96527 5.5531 11.0459 5.5531 16.1586 5.5531ZM5.56459 2.57448C7.51991 2.57448 9.44317 2.57448 11.3905 2.57448C11.3905 2.32751 11.3905 2.10299 11.3905 1.88596C11.3905 1.78118 11.3905 1.67641 11.3745 1.57911C11.3103 1.13756 10.9497 0.800782 10.4689 0.793298C9.13866 0.785814 7.8084 0.785814 6.47814 0.793298C6.00534 0.793298 5.61267 1.13008 5.5726 1.57911C5.54856 1.90092 5.56459 2.23022 5.56459 2.57448Z" fill="white"/>
<path d="M12.9977 12.5004C12.9977 13.7995 12.9977 15.106 12.9977 16.4051C12.9977 16.5079 12.9977 16.6106 12.9697 16.7061C12.9137 16.8969 12.7363 17.007 12.4843 16.9997C12.223 16.9923 12.055 16.8749 12.0177 16.6547C12.0083 16.5886 12.0083 16.5299 12.0083 16.4639C12.0083 13.8142 12.0083 11.1646 12.0083 8.51491C12.0083 8.44151 11.9803 8.34609 12.027 8.30205C12.1483 8.18462 12.2883 8.0158 12.447 8.00112C12.6057 7.98644 12.811 8.11856 12.9323 8.22132C13.007 8.28737 12.9883 8.42683 12.9883 8.53692C13.007 9.85808 12.9977 11.1792 12.9977 12.5004Z" fill="white"/>
<path d="M4.99763 12.5122C4.99763 13.8079 4.99763 15.111 4.99763 16.4067C4.99763 16.4872 5.00711 16.5751 4.98814 16.6556C4.95968 16.8679 4.77943 16.9924 4.52329 16.9997C4.25766 17.007 4.07741 16.8899 4.02049 16.6849C4.00152 16.6044 4.00152 16.5238 4.00152 16.436C4.00152 13.8079 4.00152 11.1872 4.00152 8.55913C4.00152 8.47128 3.99203 8.37612 4.02049 8.28827C4.09638 8.09062 4.27663 7.98081 4.55175 8.00277C4.80789 8.02473 4.95968 8.14186 4.98814 8.33952C5.00711 8.51521 4.99763 8.68358 4.99763 8.85927C4.99763 10.0745 4.99763 11.2897 4.99763 12.5122Z" fill="white"/>
<path d="M8.99761 12.489C8.99761 13.7851 8.99761 15.0885 8.99761 16.3846C8.99761 16.4725 8.99761 16.5677 8.98804 16.6555C8.95933 16.8679 8.78708 16.9924 8.51914 16.9997C8.23206 17.007 8.05024 16.8825 8.01196 16.6555C7.99282 16.575 8.00239 16.4944 8.00239 16.4066C8.00239 13.7997 8.00239 11.1929 8.00239 8.58611C8.00239 8.50556 8.00239 8.41769 8.01196 8.33714C8.05024 8.11747 8.22249 7.99298 8.51914 8.00031C8.79665 8.00763 8.95933 8.13211 8.98804 8.33714C9.00718 8.42501 8.99761 8.52021 8.99761 8.60808C8.99761 9.91149 8.99761 11.2002 8.99761 12.489Z" fill="white"/>
</svg>
