<svg width="40" height="40" viewBox="0 0 40 40" fill="none" xmlns="http://www.w3.org/2000/svg">
<circle cx="20" cy="20" r="19" fill="#1E1F20" fill-opacity="0.95" stroke="white" stroke-width="2"/>
<path d="M19.625 9.25C16.5184 9.25 14 11.7684 14 14.875C14 15.4963 14.5037 16 15.125 16C15.7463 16 16.25 15.4963 16.25 14.875C16.25 13.011 17.761 11.5 19.625 11.5H24.125C25.989 11.5 27.5 13.011 27.5 14.875V26.125C27.5 27.989 25.989 29.5 24.125 29.5H19.625C17.761 29.5 16.25 27.989 16.25 26.125C16.25 25.5037 15.7463 25 15.125 25C14.5037 25 14 25.5037 14 26.125C14 29.2316 16.5184 31.75 19.625 31.75H24.125C27.2316 31.75 29.75 29.2316 29.75 26.125V14.875C29.75 11.7684 27.2316 9.25 24.125 9.25H19.625Z" fill="#02E502"/>
<path d="M8.375 19.3751C7.75368 19.3751 7.25 19.8787 7.25 20.5001C7.25 21.1214 7.75368 21.6251 8.375 21.6251H17.6924C17.5922 21.7486 17.4963 21.8684 17.4055 21.9828C17.1293 22.3312 16.8955 22.6371 16.7304 22.8564C16.6478 22.9662 16.5821 23.0544 16.5369 23.1158L16.4844 23.187L16.4704 23.2063L16.4654 23.213C16.4653 23.2131 16.4649 23.2138 17.375 23.8751L16.4654 23.213C16.1002 23.7157 16.2111 24.42 16.7137 24.7852C17.2164 25.1504 17.9198 25.039 18.2851 24.5365L18.2883 24.5321L18.2997 24.5163L18.3468 24.4524C18.3883 24.3962 18.4497 24.3135 18.5278 24.2098C18.6842 24.0022 18.9063 23.7115 19.1685 23.3807C19.6987 22.7122 20.3701 21.9085 20.983 21.2956L21.7785 20.5001L20.983 19.7046C20.3701 19.0917 19.6987 18.288 19.1685 17.6194C18.9063 17.2887 18.6842 16.998 18.5278 16.7904C18.4497 16.6867 18.3883 16.604 18.3468 16.5477L18.2997 16.4838L18.2883 16.4681L18.2857 16.4645C17.9204 15.9619 17.2164 15.8497 16.7137 16.2149C16.2111 16.5801 16.0997 17.2837 16.4649 17.7863L17.375 17.1251C16.4649 17.7863 16.4648 17.7863 16.4649 17.7863L16.4666 17.7886L16.4704 17.7939L16.4844 17.8131L16.5369 17.8844C16.5821 17.9457 16.6478 18.034 16.7304 18.1437C16.8955 18.363 17.1293 18.6689 17.4055 19.0173C17.4963 19.1317 17.5922 19.2515 17.6924 19.3751H8.375Z" fill="#02E502"/>
</svg>
