<svg width="33" height="33" viewBox="0 0 33 33" fill="none" xmlns="http://www.w3.org/2000/svg">
<path d="M16.5 0C7.38158 0 0 7.38158 0 16.5C0 25.6184 7.38158 33 16.5 33C25.6184 33 33 25.6184 33 16.5C33 7.38158 25.6184 0 16.5 0ZM16.5 31.2632C8.33684 31.2632 1.73684 24.6632 1.73684 16.5C1.73684 8.33684 8.33684 1.73684 16.5 1.73684C24.6632 1.73684 31.2632 8.33684 31.2632 16.5C31.2632 24.6632 24.6632 31.2632 16.5 31.2632ZM24.9671 16.5C24.9671 16.9776 24.5763 17.3684 24.0987 17.3684H14.3724C13.8947 17.3684 13.5039 16.9776 13.5039 16.5C13.5039 16.0224 13.8947 15.6316 14.3724 15.6316H24.0987C24.5763 15.6316 24.9671 16.0224 24.9671 16.5ZM24.9671 21.7105C24.9671 22.1882 24.5763 22.5789 24.0987 22.5789H14.3724C13.8947 22.5789 13.5039 22.1882 13.5039 21.7105C13.5039 21.2329 13.8947 20.8421 14.3724 20.8421H24.0987C24.5763 20.8421 24.9671 21.2329 24.9671 21.7105ZM11.4197 16.5C11.4197 16.9776 11.0289 17.3684 10.5513 17.3684H8.90132C8.42368 17.3684 8.03289 16.9776 8.03289 16.5C8.03289 16.0224 8.42368 15.6316 8.90132 15.6316H10.5513C11.0289 15.6316 11.4197 16.0224 11.4197 16.5ZM11.4197 21.7105C11.4197 22.1882 11.0289 22.5789 10.5513 22.5789H8.90132C8.42368 22.5789 8.03289 22.1882 8.03289 21.7105C8.03289 21.2329 8.42368 20.8421 8.90132 20.8421H10.5513C11.0289 20.8421 11.4197 21.2329 11.4197 21.7105ZM24.9671 11.2895C24.9671 11.7671 24.5763 12.1579 24.0987 12.1579H14.3724C13.8947 12.1579 13.5039 11.7671 13.5039 11.2895C13.5039 10.8118 13.8947 10.4211 14.3724 10.4211H24.0987C24.5763 10.4211 24.9671 10.8118 24.9671 11.2895ZM11.4197 11.2895C11.4197 11.7671 11.0289 12.1579 10.5513 12.1579H8.90132C8.42368 12.1579 8.03289 11.7671 8.03289 11.2895C8.03289 10.8118 8.42368 10.4211 8.90132 10.4211H10.5513C11.0289 10.4211 11.4197 10.8118 11.4197 11.2895Z" fill="white"/>
<circle cx="16.5" cy="16.5" r="15.5" stroke="#02E502" stroke-width="2"/>
</svg>
