<svg width="32" height="19" viewBox="0 0 32 19" fill="none" xmlns="http://www.w3.org/2000/svg">
<path d="M2.432 0.00799918V18H0.82V0.00799918H2.432ZM6.07586 0.00799918H9.22186C10.3139 0.00799918 11.1979 0.354666 11.8739 1.048C12.5499 1.724 12.8879 2.608 12.8879 3.7V7.314C12.8879 8.406 12.5499 9.29867 11.8739 9.992C11.1979 10.668 10.3139 11.006 9.22186 11.006H7.68786V18H6.07586V0.00799918ZM9.14386 9.55C9.78519 9.55 10.2965 9.35067 10.6779 8.952C11.0765 8.55333 11.2759 7.98133 11.2759 7.236V3.778C11.2759 3.03267 11.0765 2.46067 10.6779 2.062C10.2965 1.66333 9.78519 1.464 9.14386 1.464H7.68786V9.55H9.14386ZM18.8951 7.73C19.6577 7.73 20.3424 7.92067 20.9491 8.302C21.5731 8.666 22.0584 9.19467 22.4051 9.888C22.7517 10.564 22.9251 11.3527 22.9251 12.254V13.684C22.9251 14.5853 22.7517 15.3827 22.4051 16.076C22.0584 16.752 21.5731 17.2807 20.9491 17.662C20.3424 18.026 19.6577 18.208 18.8951 18.208C18.1324 18.208 17.4391 18.026 16.8151 17.662C16.2084 17.2807 15.7317 16.752 15.3851 16.076C15.0384 15.3827 14.8651 14.5853 14.8651 13.684V12.254C14.8651 11.4913 15.0211 10.7373 15.3331 9.992L19.4671 0.00799918H21.0791L17.7771 7.886C18.1064 7.782 18.4791 7.73 18.8951 7.73ZM21.3131 12.254C21.3131 11.2833 21.0877 10.5293 20.6371 9.992C20.2037 9.45467 19.6231 9.186 18.8951 9.186C18.1671 9.186 17.5777 9.45467 17.1271 9.992C16.6937 10.5293 16.4771 11.2833 16.4771 12.254V13.684C16.4771 14.6547 16.6937 15.4087 17.1271 15.946C17.5777 16.4833 18.1671 16.752 18.8951 16.752C19.6231 16.752 20.2037 16.4833 20.6371 15.946C21.0877 15.4087 21.3131 14.6547 21.3131 13.684V12.254ZM31.7519 1.23L27.2019 18H25.5119L29.9839 1.464H25.7459V4.064H24.1339V0.00799918H31.7519V1.23Z" fill="#02E602"/>
</svg>
